# xmcd CD database file
#
# Track frame offsets:
#	150
#	21015
#	39257
#	60112
#
# Disc length: 1043 seconds
#
# Revision: 0
# Processed by: cddbd v1.5PL3 Copyright (c) Steve Scherf et al.
# Submitted via: CDex 1.51
#
DISCID=1f041104
DTITLE=米倉千尋 - オレンジ色のKissをあげよう
DYEAR=1996
DGENRE=JPop
TTITLE0=オレンジ色のKissをあげよう
TTITLE1=Try On My Dreams
TTITLE2=オレンジ色のKissをあげよう(カラオケ)
TTITLE3=Try On My Dreams(カラオケ)
EXTD=YEAR: 1996
EXTT0=
EXTT1=
EXTT2=
EXTT3=
PLAYORDER=
